<svg id="svg" version="1.1" xmlns="http://www.w3.org/2000/svg" xmlns:xlink="http://www.w3.org/1999/xlink" width="400" height="400" viewBox="0, 0, 400,400"><g id="svgg"><path id="path0" d="M0.000 200.000 L 0.000 400.000 200.000 400.000 L 400.000 400.000 400.000 200.000 L 400.000 0.000 200.000 0.000 L 0.000 0.000 0.000 200.000 M84.537 148.432 C 112.237 153.167,127.728 183.354,115.222 208.227 C 110.925 216.773,97.266 229.642,97.266 225.144 C 97.266 224.482,96.796 223.673,95.948 222.873 C 93.540 220.602,93.705 219.807,97.056 217.556 C 122.096 200.737,112.466 160.215,82.477 156.207 C 47.664 151.556,29.443 197.077,57.962 217.453 C 61.465 219.957,61.645 220.939,59.053 223.427 C 58.263 224.185,57.441 225.124,57.227 225.514 C 55.934 227.861,45.067 217.263,41.078 209.766 C 24.523 178.653,50.107 142.546,84.537 148.432 M171.004 160.258 L 171.110 168.368 172.334 166.974 C 177.479 161.114,187.782 163.017,191.252 170.468 C 192.163 172.425,192.180 172.672,192.184 184.082 L 192.188 195.703 188.672 195.703 L 185.156 195.703 185.156 185.630 C 185.156 175.960,185.121 175.486,184.277 173.813 C 182.116 169.527,175.025 169.154,172.093 173.172 C 171.341 174.203,171.276 174.960,171.094 184.891 L 170.898 195.508 167.383 195.508 L 163.867 195.508 163.867 173.893 C 163.867 162.005,163.947 152.199,164.044 152.102 C 164.141 152.005,165.723 151.975,167.560 152.037 L 170.898 152.148 171.004 160.258 M290.535 160.492 L 290.641 168.835 291.429 167.833 C 292.997 165.840,296.975 164.297,300.547 164.297 C 316.331 164.297,321.415 187.708,307.198 194.922 C 302.663 197.223,294.961 196.321,291.523 193.086 L 290.273 191.910 290.156 193.709 L 290.039 195.508 286.951 195.623 C 285.253 195.686,283.706 195.581,283.513 195.388 C 283.308 195.183,283.278 186.089,283.440 173.481 L 283.718 151.925 287.074 152.036 L 290.430 152.148 290.535 160.492 M152.804 164.541 C 155.933 165.973,160.982 171.186,160.093 172.067 C 160.020 172.139,158.643 172.729,157.031 173.378 L 154.102 174.558 152.539 172.829 C 145.248 164.760,133.836 175.563,139.675 185.007 C 142.735 189.956,149.640 190.652,152.552 186.305 C 153.473 184.930,153.692 184.916,157.101 186.014 C 160.148 186.996,160.153 187.007,158.606 189.705 C 153.595 198.441,139.571 197.975,133.787 188.879 C 125.110 175.233,138.560 158.019,152.804 164.541 M84.584 164.532 C 84.719 164.667,84.203 167.520,83.436 170.870 L 82.041 176.963 84.152 185.259 C 85.314 189.822,87.179 197.422,88.297 202.148 C 89.415 206.875,91.012 213.542,91.845 216.963 C 92.678 220.385,93.359 223.558,93.359 224.015 C 93.359 224.913,79.920 240.264,78.441 241.056 C 77.270 241.682,62.109 226.601,62.109 224.809 C 62.109 223.620,69.591 190.346,71.531 182.910 C 72.189 180.386,72.814 177.958,72.919 177.516 C 73.024 177.073,72.392 174.080,71.516 170.865 C 70.639 167.650,69.922 164.900,69.922 164.756 C 69.922 164.179,84.016 163.964,84.584 164.532 M217.914 165.424 C 223.312 168.396,223.882 170.215,223.886 184.461 L 223.888 195.508 220.636 195.508 L 217.383 195.508 217.255 194.166 C 217.185 193.428,217.009 192.997,216.864 193.209 C 215.554 195.122,210.462 196.709,206.842 196.332 C 195.720 195.174,192.368 181.208,202.270 177.282 C 204.599 176.359,212.890 175.975,215.918 176.650 C 217.435 176.989,217.619 176.094,216.571 173.476 C 215.132 169.878,208.215 169.253,205.555 172.479 L 204.429 173.846 201.664 173.589 C 197.848 173.234,197.682 173.087,198.714 170.962 C 201.845 164.517,211.309 161.788,217.914 165.424 M251.305 165.191 C 252.345 165.702,253.669 166.774,254.249 167.574 L 255.303 169.029 257.328 167.167 C 262.310 162.585,271.413 163.084,275.078 168.139 C 277.161 171.013,277.367 172.569,277.252 184.594 L 277.148 195.508 273.633 195.508 L 270.117 195.508 269.922 184.766 C 269.705 172.830,269.650 172.576,267.001 171.320 C 263.519 169.667,259.672 170.574,258.017 173.438 C 257.287 174.700,257.217 175.607,257.100 185.269 L 256.974 195.733 253.585 195.620 L 250.195 195.508 250.000 184.891 C 249.760 171.847,249.118 170.469,243.312 170.548 C 237.728 170.624,237.058 172.193,236.977 185.395 L 236.914 195.508 233.301 195.620 L 229.688 195.732 229.688 180.273 L 229.688 164.814 233.301 164.927 L 236.914 165.039 236.914 166.486 L 236.914 167.934 238.086 166.802 C 241.103 163.886,247.149 163.149,251.305 165.191 M337.995 164.678 C 340.366 165.486,343.137 167.967,344.452 170.460 L 345.508 172.461 345.508 183.984 L 345.508 195.508 342.383 195.508 L 339.258 195.508 339.063 194.193 C 338.869 192.891,338.861 192.886,338.156 193.669 C 335.812 196.271,328.411 197.172,324.325 195.352 C 316.064 191.673,315.653 180.941,323.633 177.268 C 325.677 176.327,334.232 175.943,337.402 176.650 C 338.892 176.983,339.154 175.737,338.117 173.256 C 336.671 169.796,329.639 169.326,327.012 172.513 L 325.858 173.913 322.857 173.512 C 319.190 173.022,319.302 173.135,320.331 170.947 C 323.076 165.108,331.001 162.295,337.995 164.678 M295.462 171.841 C 291.667 173.565,289.901 179.164,291.618 184.031 C 294.566 192.387,307.325 190.464,308.397 181.503 C 309.259 174.301,301.995 168.875,295.462 171.841 M206.124 182.664 C 200.888 184.273,203.233 190.234,209.102 190.234 C 213.828 190.234,217.188 187.500,217.188 183.655 C 217.188 181.930,210.472 181.329,206.124 182.664 M328.320 182.394 C 324.826 183.237,323.572 185.685,325.425 188.041 C 327.050 190.106,330.509 190.840,333.958 189.851 C 337.750 188.764,340.464 182.878,337.451 182.275 C 335.850 181.955,329.814 182.034,328.320 182.394 M149.170 202.197 L 150.391 202.441 150.391 205.474 L 150.391 208.507 147.128 208.304 C 143.138 208.055,142.578 208.534,142.578 212.196 L 142.578 214.453 146.094 214.453 L 149.609 214.453 149.609 217.578 L 149.609 220.703 146.099 220.703 L 142.589 220.703 142.486 233.105 L 142.383 245.508 138.867 245.508 L 135.352 245.508 135.500 233.105 L 135.649 220.703 133.059 220.703 L 130.469 220.703 130.469 217.578 L 130.469 214.453 133.008 214.453 L 135.547 214.453 135.547 211.929 C 135.547 204.331,140.861 200.535,149.170 202.197 M176.712 202.661 C 176.820 202.835,175.468 204.579,173.708 206.536 L 170.508 210.094 167.308 210.125 C 163.263 210.164,163.245 210.119,165.657 205.877 L 167.666 202.344 172.091 202.344 C 174.525 202.344,176.605 202.487,176.712 202.661 M222.695 203.557 C 225.342 206.391,223.439 210.909,219.590 210.929 C 216.212 210.946,214.207 207.417,215.820 204.297 C 217.060 201.900,220.774 201.500,222.695 203.557 M235.999 204.980 C 236.033 206.431,236.025 215.967,235.982 226.172 C 235.939 236.377,235.911 244.953,235.921 245.230 C 235.933 245.612,235.113 245.706,232.520 245.621 L 229.102 245.508 229.022 224.414 C 228.979 212.812,229.017 203.101,229.108 202.832 C 229.222 202.492,230.287 202.344,232.605 202.344 L 235.938 202.344 235.999 204.980 M205.147 214.731 C 207.484 215.786,210.248 218.335,211.518 220.606 C 212.694 222.711,212.882 222.436,209.317 223.832 L 206.445 224.955 204.989 223.266 C 199.547 216.950,190.625 221.363,190.625 230.372 C 190.625 239.079,201.328 242.959,205.379 235.721 C 205.657 235.225,211.170 236.577,212.082 237.365 C 213.002 238.160,208.398 243.405,205.553 244.802 C 196.418 249.288,185.317 243.012,183.622 232.404 C 181.645 220.029,194.145 209.766,205.147 214.731 M173.789 215.433 C 176.044 216.675,178.470 219.521,179.244 221.836 C 179.534 222.705,179.688 227.061,179.688 234.449 L 179.688 245.735 176.465 245.621 L 173.242 245.508 173.123 244.279 L 173.003 243.051 171.109 244.326 C 164.475 248.790,154.541 245.812,152.486 238.742 C 149.932 229.959,158.418 224.509,171.249 226.693 L 173.162 227.018 172.916 225.225 C 172.482 222.054,171.275 220.961,167.682 220.485 C 164.984 220.127,162.770 220.835,161.404 222.492 L 160.268 223.871 157.248 223.597 C 153.691 223.275,153.506 223.030,154.838 220.402 C 157.851 214.456,167.445 211.940,173.789 215.433 M222.852 230.078 L 222.852 245.508 219.434 245.621 L 216.016 245.734 216.016 230.078 L 216.016 214.423 219.434 214.536 L 222.852 214.648 222.852 230.078 M163.867 232.289 C 156.471 233.874,157.482 240.255,165.124 240.226 C 169.626 240.209,173.047 237.290,173.047 233.465 C 173.047 232.256,167.399 231.532,163.867 232.289 " stroke="none" fill="#f4f4f3" fill-rule="evenodd"></path><path id="path1" d="M164.063 173.828 L 164.063 195.313 167.560 195.313 L 171.058 195.313 171.174 184.591 L 171.289 173.870 172.628 172.489 C 175.799 169.220,181.443 169.566,184.156 173.196 C 184.915 174.213,184.968 174.876,185.077 184.793 L 185.192 195.313 188.711 195.313 L 192.230 195.313 192.111 183.691 L 191.992 172.070 190.953 170.117 C 187.284 163.223,177.835 161.479,172.704 166.749 L 170.898 168.603 171.024 160.473 L 171.150 152.344 167.606 152.344 L 164.063 152.344 164.063 173.828 M283.594 173.828 L 283.594 195.313 286.914 195.313 L 290.234 195.313 290.234 193.478 L 290.234 191.644 291.504 192.858 C 297.860 198.938,309.562 196.386,313.815 187.993 C 321.092 173.632,303.729 157.080,292.232 167.417 L 290.234 169.213 290.234 160.778 L 290.234 152.344 286.914 152.344 L 283.594 152.344 283.594 173.828 M142.633 163.693 C 134.340 165.367,128.848 177.237,132.333 185.954 C 136.927 197.447,152.833 199.352,158.873 189.134 C 160.051 187.143,159.991 187.064,156.471 186.013 L 153.761 185.203 152.174 186.898 C 148.307 191.024,142.257 189.882,139.339 184.474 C 134.125 174.811,145.319 164.715,152.470 172.631 C 154.171 174.514,153.825 174.473,157.119 173.180 C 160.160 171.988,160.164 171.978,158.572 169.498 C 155.652 164.947,148.793 162.449,142.633 163.693 M205.946 164.615 C 202.942 165.592,200.666 167.617,199.010 170.788 C 197.798 173.107,197.727 172.915,199.902 173.208 C 200.923 173.346,202.384 173.552,203.150 173.665 C 204.367 173.846,204.600 173.744,205.006 172.854 C 205.973 170.732,210.762 169.678,214.063 170.862 C 217.003 171.917,218.678 177.295,215.918 176.823 C 202.448 174.515,194.051 179.973,197.073 189.071 C 199.292 195.750,209.527 198.513,215.640 194.085 C 217.547 192.703,217.578 192.704,217.578 194.141 L 217.578 195.313 220.703 195.313 L 223.828 195.313 223.828 184.390 C 223.828 171.784,223.602 170.612,220.609 167.682 C 217.361 164.502,210.625 163.093,205.946 164.615 M241.749 164.673 C 240.692 164.998,239.275 165.877,238.331 166.794 L 236.719 168.359 236.719 166.586 L 236.719 164.813 233.301 164.926 L 229.883 165.039 229.781 180.176 L 229.678 195.313 233.199 195.313 L 236.719 195.313 236.719 185.434 C 236.719 174.529,236.983 173.204,239.522 171.355 C 242.222 169.389,247.278 170.337,249.142 173.159 L 250.195 174.752 250.111 185.032 L 250.027 195.313 253.529 195.313 L 257.031 195.313 257.040 185.254 C 257.051 172.262,257.896 170.313,263.517 170.313 C 269.242 170.313,270.313 172.695,270.313 185.434 L 270.313 195.313 273.855 195.313 L 277.397 195.313 277.273 183.887 C 277.130 170.780,276.910 169.763,273.582 166.834 C 269.166 162.946,260.499 163.439,256.674 167.795 L 255.482 169.152 253.620 167.231 C 250.758 164.280,246.210 163.299,241.749 164.673 M326.367 165.148 C 323.989 166.301,321.634 168.524,320.530 170.660 C 319.547 172.561,319.728 172.931,321.777 173.218 C 322.798 173.360,324.160 173.567,324.805 173.677 C 325.791 173.846,326.084 173.696,326.654 172.728 C 329.304 168.235,338.095 169.912,338.584 175.005 L 338.773 176.972 336.476 176.670 C 324.293 175.066,317.441 178.745,318.068 186.554 C 318.770 195.299,331.398 199.586,338.379 193.449 C 339.012 192.892,339.063 192.938,339.063 194.080 L 339.063 195.313 342.410 195.313 L 345.757 195.313 345.612 184.277 C 345.449 171.973,345.277 171.000,342.742 168.038 C 339.438 164.178,331.324 162.746,326.367 165.148 M303.405 171.819 C 312.036 176.222,309.320 189.003,299.675 189.369 C 294.973 189.547,292.561 187.711,291.157 182.881 C 288.820 174.842,296.224 168.155,303.405 171.819 M216.519 182.277 C 217.296 182.429,217.558 182.677,217.432 183.140 C 217.335 183.497,217.145 184.443,217.011 185.243 C 215.923 191.695,203.125 192.330,203.125 185.931 C 203.125 182.544,209.290 180.862,216.519 182.277 M338.407 182.293 C 339.913 182.715,338.432 187.147,336.231 188.809 C 330.906 192.827,321.462 188.702,325.110 183.951 C 326.561 182.061,334.190 181.110,338.407 182.293 M139.808 203.253 C 137.325 204.563,135.871 207.510,135.627 211.725 L 135.446 214.844 132.941 214.844 L 130.435 214.844 130.549 217.676 L 130.664 220.508 133.105 220.624 L 135.547 220.740 135.547 233.026 L 135.547 245.313 138.867 245.313 L 142.188 245.313 142.249 233.496 C 142.283 226.997,142.302 221.460,142.292 221.191 C 142.280 220.844,143.166 220.689,145.356 220.654 C 147.051 220.627,148.657 220.583,148.926 220.557 C 149.268 220.522,149.414 219.643,149.414 217.618 L 149.414 214.728 145.996 214.810 L 142.578 214.892 142.578 212.161 C 142.578 208.413,142.931 208.104,147.032 208.261 L 150.195 208.382 150.309 205.363 L 150.423 202.344 145.976 202.344 C 142.074 202.344,141.318 202.455,139.808 203.253 M166.992 203.906 C 166.518 204.658,165.574 206.261,164.893 207.468 L 163.655 209.663 166.886 209.949 L 170.117 210.235 173.333 206.778 C 177.313 202.499,177.397 202.807,172.208 202.661 L 167.853 202.539 166.992 203.906 M216.840 203.344 C 213.763 205.933,215.778 210.938,219.896 210.938 C 221.776 210.938,223.469 209.164,223.721 206.931 C 224.144 203.181,219.754 200.892,216.840 203.344 M229.297 223.828 L 229.297 245.313 232.617 245.313 L 235.938 245.313 235.938 223.828 L 235.938 202.344 232.617 202.344 L 229.297 202.344 229.297 223.828 M194.295 214.199 C 183.406 217.789,180.064 232.789,188.212 241.501 C 194.799 248.543,207.179 247.195,211.371 238.979 L 212.131 237.489 211.241 237.153 C 210.752 236.968,209.362 236.505,208.153 236.125 L 205.954 235.434 204.247 237.210 C 197.154 244.587,186.530 234.107,191.726 224.859 C 194.761 219.458,202.509 218.652,205.339 223.443 C 206.164 224.840,206.167 224.840,209.375 223.671 C 212.445 222.552,212.543 222.235,210.657 219.551 C 207.348 214.841,199.819 212.378,194.295 214.199 M161.458 214.761 C 158.793 215.715,157.011 217.120,155.565 219.412 C 153.559 222.590,153.575 222.913,155.750 223.207 C 156.777 223.345,158.232 223.547,158.984 223.655 C 160.177 223.826,160.431 223.710,160.975 222.741 C 163.662 217.955,173.041 220.210,173.045 225.642 L 173.047 227.261 171.387 226.870 C 163.828 225.091,155.331 227.389,153.295 231.763 C 148.536 241.983,161.482 250.591,171.582 243.925 L 173.047 242.958 173.047 244.135 L 173.047 245.313 176.394 245.313 L 179.740 245.313 179.616 233.887 C 179.474 220.832,179.370 220.357,175.934 217.190 C 172.694 214.203,166.106 213.098,161.458 214.761 M216.016 230.078 L 216.016 245.313 219.494 245.313 L 222.973 245.313 223.019 230.078 L 223.064 214.844 219.540 214.844 L 216.016 214.844 216.016 230.078 M172.168 232.277 C 175.406 233.145,171.426 239.276,166.978 240.272 C 161.222 241.560,156.164 236.501,160.204 233.496 C 161.901 232.234,169.222 231.488,172.168 232.277 " stroke="none" fill="#14375e" fill-rule="evenodd"></path><path id="path2" d="M74.219 147.902 C 67.372 148.883,63.079 150.092,58.789 152.248 C 36.688 163.353,29.292 190.815,42.605 212.336 C 46.485 218.609,56.205 227.369,57.227 225.514 C 57.441 225.124,58.276 224.173,59.082 223.400 C 61.356 221.219,61.169 219.792,58.344 217.773 C 29.276 196.999,47.537 151.068,82.814 156.227 C 112.975 160.637,122.081 201.459,96.582 217.946 C 93.992 219.621,93.818 220.864,95.898 222.826 C 96.650 223.535,97.266 224.461,97.266 224.883 C 97.266 228.134,106.502 221.045,111.690 213.811 C 128.386 190.533,116.873 157.459,89.281 149.438 C 85.095 148.221,77.443 147.441,74.219 147.902 M73.145 164.353 C 71.372 164.426,69.922 164.554,69.922 164.639 C 69.922 164.724,70.644 167.480,71.526 170.763 L 73.130 176.731 71.140 184.752 C 69.248 192.377,66.592 203.848,63.462 217.905 C 62.681 221.415,62.141 224.682,62.262 225.165 C 62.592 226.480,77.097 241.016,78.079 241.016 C 78.981 241.016,92.829 225.789,93.194 224.396 C 93.396 223.628,86.200 192.766,83.348 182.167 L 81.966 177.030 83.223 171.620 C 83.915 168.645,84.560 165.842,84.657 165.392 C 84.846 164.518,81.807 163.954,77.930 164.145 C 77.070 164.187,74.917 164.281,73.145 164.353 " stroke="none" fill="#4495fb" fill-rule="evenodd"></path><path id="path3" d="M163.837 152.476 C 163.727 152.763,163.697 154.389,163.771 156.089 L 163.905 159.180 163.984 155.777 L 164.063 152.374 167.480 152.244 L 170.898 152.114 167.468 152.033 C 164.905 151.973,163.987 152.085,163.837 152.476 M285.266 152.241 C 286.293 152.321,287.875 152.320,288.781 152.239 C 289.688 152.157,288.848 152.091,286.914 152.092 C 284.980 152.093,284.239 152.160,285.266 152.241 M299.907 164.339 C 300.393 164.432,301.096 164.429,301.469 164.331 C 301.843 164.233,301.445 164.157,300.586 164.161 C 299.727 164.165,299.421 164.245,299.907 164.339 M236.719 166.383 C 236.719 167.015,236.858 167.618,237.028 167.723 C 237.198 167.828,237.266 167.311,237.180 166.574 C 236.989 164.932,236.719 164.821,236.719 166.383 M270.107 185.547 L 270.117 195.508 272.755 195.537 L 275.394 195.566 272.860 195.421 L 270.326 195.277 270.211 185.432 L 270.096 175.586 270.107 185.547 M236.857 181.445 C 236.856 183.379,236.922 184.219,237.004 183.313 C 237.086 182.406,237.087 180.824,237.006 179.797 C 236.926 178.770,236.859 179.512,236.857 181.445 M283.351 182.422 C 283.351 184.893,283.414 185.903,283.492 184.668 C 283.569 183.433,283.569 181.411,283.492 180.176 C 283.414 178.940,283.351 179.951,283.351 182.422 M137.981 179.688 C 137.981 180.439,138.062 180.747,138.160 180.371 C 138.258 179.995,138.258 179.380,138.160 179.004 C 138.062 178.628,137.981 178.936,137.981 179.688 M163.831 189.063 C 163.831 192.607,163.890 194.058,163.962 192.285 C 164.035 190.513,164.035 187.612,163.962 185.840 C 163.890 184.067,163.831 185.518,163.831 189.063 M236.716 191.486 C 236.610 193.786,236.662 195.528,236.831 195.358 C 237.001 195.188,237.087 193.306,237.024 191.176 L 236.909 187.305 236.716 191.486 M111.435 189.844 C 111.435 190.811,111.511 191.206,111.604 190.723 C 111.697 190.239,111.697 189.448,111.604 188.965 C 111.511 188.481,111.435 188.877,111.435 189.844 M231.353 195.593 C 231.947 195.683,232.826 195.680,233.306 195.587 C 233.787 195.495,233.301 195.421,232.227 195.424 C 231.152 195.427,230.759 195.503,231.353 195.593 M251.847 195.594 C 252.540 195.681,253.771 195.682,254.581 195.598 C 255.392 195.513,254.824 195.442,253.320 195.441 C 251.816 195.439,251.153 195.508,251.847 195.594 M285.254 195.597 C 286.060 195.681,287.378 195.681,288.184 195.597 C 288.989 195.513,288.330 195.444,286.719 195.444 C 285.107 195.444,284.448 195.513,285.254 195.597 M207.129 196.374 C 207.720 196.463,208.687 196.463,209.277 196.374 C 209.868 196.284,209.385 196.211,208.203 196.211 C 207.021 196.211,206.538 196.284,207.129 196.374 M328.613 196.374 C 329.204 196.463,330.171 196.463,330.762 196.374 C 331.353 196.284,330.869 196.211,329.688 196.211 C 328.506 196.211,328.022 196.284,328.613 196.374 M145.215 202.236 C 145.913 202.322,147.056 202.322,147.754 202.236 C 148.452 202.149,147.881 202.078,146.484 202.078 C 145.088 202.078,144.517 202.149,145.215 202.236 M229.059 207.813 C 229.059 210.713,229.121 211.899,229.196 210.449 C 229.271 208.999,229.271 206.626,229.196 205.176 C 229.121 203.726,229.059 204.912,229.059 207.813 M236.082 211.328 C 236.082 213.584,236.147 214.507,236.225 213.379 C 236.304 212.251,236.304 210.405,236.225 209.277 C 236.147 208.149,236.082 209.072,236.082 211.328 M217.688 214.741 C 218.715 214.821,220.297 214.820,221.203 214.739 C 222.110 214.657,221.270 214.591,219.336 214.592 C 217.402 214.593,216.661 214.660,217.688 214.741 M229.074 225.391 C 229.074 230.439,229.130 232.505,229.198 229.980 C 229.266 227.456,229.266 223.325,229.198 220.801 C 229.130 218.276,229.074 220.342,229.074 225.391 M67.773 231.641 C 69.049 232.930,70.181 233.984,70.288 233.984 C 70.395 233.984,69.440 232.930,68.164 231.641 C 66.888 230.352,65.757 229.297,65.649 229.297 C 65.542 229.297,66.498 230.352,67.773 231.641 M71.875 235.742 C 72.604 236.494,73.288 237.109,73.395 237.109 C 73.503 237.109,72.994 236.494,72.266 235.742 C 71.537 234.990,70.853 234.375,70.745 234.375 C 70.638 234.375,71.146 234.990,71.875 235.742 M135.308 239.648 C 135.309 242.441,135.371 243.533,135.446 242.074 C 135.522 240.614,135.521 238.329,135.445 236.995 C 135.369 235.662,135.307 236.855,135.308 239.648 M164.160 240.504 C 164.536 240.602,165.151 240.602,165.527 240.504 C 165.903 240.405,165.596 240.325,164.844 240.325 C 164.092 240.325,163.784 240.405,164.160 240.504 M135.503 245.427 C 135.675 245.597,137.293 245.684,139.099 245.619 L 142.383 245.502 138.787 245.309 C 136.810 245.204,135.332 245.257,135.503 245.427 M217.688 245.600 C 218.715 245.681,220.297 245.680,221.203 245.598 C 222.110 245.516,221.270 245.450,219.336 245.451 C 217.402 245.452,216.661 245.519,217.688 245.600 M230.969 245.600 C 231.996 245.681,233.578 245.680,234.484 245.598 C 235.391 245.516,234.551 245.450,232.617 245.451 C 230.684 245.452,229.942 245.519,230.969 245.600 " stroke="none" fill="#95a2ac" fill-rule="evenodd"></path><path id="path4" d="M290.387 157.422 C 290.387 160.322,290.449 161.509,290.524 160.059 C 290.599 158.608,290.599 156.235,290.524 154.785 C 290.449 153.335,290.387 154.521,290.387 157.422 M290.359 165.625 C 290.359 167.021,290.430 167.593,290.517 166.895 C 290.604 166.196,290.604 165.054,290.517 164.355 C 290.430 163.657,290.359 164.229,290.359 165.625 M250.131 182.813 C 250.131 184.424,250.200 185.083,250.285 184.277 C 250.369 183.472,250.369 182.153,250.285 181.348 C 250.200 180.542,250.131 181.201,250.131 182.813 M210.844 181.917 C 211.330 182.010,212.033 182.007,212.407 181.909 C 212.780 181.811,212.383 181.735,211.523 181.739 C 210.664 181.743,210.358 181.823,210.844 181.917 M332.329 181.917 C 332.815 182.010,333.518 182.007,333.891 181.909 C 334.265 181.811,333.867 181.735,333.008 181.739 C 332.148 181.743,331.843 181.823,332.329 181.917 M283.269 190.895 C 283.233 193.299,283.335 195.348,283.496 195.449 C 283.657 195.549,283.742 194.197,283.684 192.444 C 283.503 186.969,283.337 186.349,283.269 190.895 M217.345 194.531 C 217.382 195.489,217.445 195.508,220.607 195.533 L 223.830 195.558 220.729 195.420 C 217.890 195.293,217.614 195.209,217.467 194.418 C 217.333 193.695,217.314 193.713,217.345 194.531 M165.734 195.600 C 166.761 195.681,168.343 195.680,169.250 195.598 C 170.157 195.516,169.316 195.450,167.383 195.451 C 165.449 195.452,164.707 195.519,165.734 195.600 M187.012 195.599 C 187.925 195.681,189.419 195.681,190.332 195.599 C 191.245 195.516,190.498 195.449,188.672 195.449 C 186.846 195.449,186.099 195.516,187.012 195.599 M341.300 195.594 C 341.993 195.681,343.224 195.682,344.034 195.598 C 344.845 195.513,344.277 195.442,342.773 195.441 C 341.270 195.439,340.606 195.508,341.300 195.594 M170.424 202.633 C 171.668 202.711,173.601 202.710,174.721 202.631 C 175.841 202.553,174.824 202.489,172.461 202.490 C 170.098 202.491,169.181 202.555,170.424 202.633 M131.934 214.736 C 132.632 214.822,133.774 214.822,134.473 214.736 C 135.171 214.649,134.600 214.578,133.203 214.578 C 131.807 214.578,131.235 214.649,131.934 214.736 M144.043 214.739 C 144.956 214.821,146.450 214.821,147.363 214.739 C 148.276 214.657,147.529 214.590,145.703 214.590 C 143.877 214.590,143.130 214.657,144.043 214.739 M142.361 233.594 C 142.361 240.146,142.414 242.827,142.480 239.551 C 142.545 236.274,142.545 230.913,142.480 227.637 C 142.414 224.360,142.361 227.041,142.361 233.594 M163.770 226.441 C 164.146 226.539,164.761 226.539,165.137 226.441 C 165.513 226.343,165.205 226.263,164.453 226.263 C 163.701 226.263,163.394 226.343,163.770 226.441 M229.061 239.844 C 229.061 242.959,229.122 244.233,229.196 242.676 C 229.270 241.118,229.270 238.569,229.196 237.012 C 229.122 235.454,229.061 236.729,229.061 239.844 M176.081 245.596 C 176.783 245.683,177.838 245.681,178.425 245.592 C 179.012 245.502,178.438 245.431,177.148 245.434 C 175.859 245.436,175.379 245.509,176.081 245.596 " stroke="none" fill="#7c7c7c" fill-rule="evenodd"></path></g></svg>