<?xml version="1.0" standalone="no"?>
<!DOCTYPE svg PUBLIC "-//W3C//DTD SVG 20010904//EN"
 "http://www.w3.org/TR/2001/REC-SVG-20010904/DTD/svg10.dtd">
<svg version="1.0" xmlns="http://www.w3.org/2000/svg"
 width="1280.000000pt" height="1256.000000pt" viewBox="0 0 1280.000000 1256.000000"
 preserveAspectRatio="xMidYMid meet">

<g transform="translate(0.000000,1256.000000) scale(0.100000,-0.100000)"
fill="#000000" stroke="none">
<path d="M5945 11960 c-169 -11 -397 -36 -520 -56 -196 -34 -538 -113 -605
-141 -8 -3 -25 -8 -37 -10 -52 -9 -401 -139 -583 -218 -247 -107 -647 -344
-902 -536 -314 -236 -637 -549 -863 -838 -28 -35 -66 -82 -85 -105 -65 -79
-194 -269 -292 -431 -86 -141 -264 -495 -323 -640 -51 -125 -160 -446 -190
-557 -120 -447 -181 -942 -168 -1368 2 -91 5 -172 5 -180 1 -99 51 -526 65
-560 3 -8 5 -19 4 -23 -4 -21 64 -320 111 -482 89 -314 205 -599 377 -930 175
-336 374 -622 661 -950 91 -104 387 -392 490 -477 240 -197 469 -357 710 -495
178 -102 192 -108 206 -89 10 15 105 299 194 581 15 50 54 170 85 268 31 97
55 183 52 191 -3 7 -50 41 -105 75 -553 342 -1040 877 -1338 1471 -194 386
-306 756 -371 1220 -25 179 -25 703 0 878 44 307 104 560 191 802 304 847 921
1569 1706 1995 148 81 377 185 406 185 14 0 61 -48 155 -157 488 -570 671
-782 703 -813 l37 -35 537 -3 c371 -2 549 0 575 8 33 10 90 72 453 496 228
266 419 484 424 484 17 0 296 -136 393 -191 123 -71 241 -148 362 -238 87 -64
250 -194 265 -210 3 -3 39 -37 80 -76 373 -351 664 -767 878 -1260 95 -220
187 -538 232 -806 44 -266 53 -393 47 -700 -4 -227 -9 -304 -31 -449 -103
-683 -380 -1304 -820 -1837 -232 -280 -587 -588 -895 -776 -46 -28 -85 -56
-87 -62 -4 -10 20 -89 172 -560 37 -115 75 -237 84 -270 21 -71 79 -225 86
-225 9 0 111 54 214 113 322 185 643 425 905 677 416 401 729 820 982 1315
116 226 262 587 303 745 5 19 25 88 44 153 32 108 70 280 110 497 28 150 45
328 58 585 10 219 10 284 -5 505 -23 333 -43 475 -112 785 -84 374 -220 750
-389 1075 -27 52 -60 118 -75 145 -61 120 -217 368 -329 521 -230 317 -545
651 -832 884 -30 25 -57 47 -60 50 -6 7 -196 150 -226 170 -154 104 -237 157
-329 212 -482 285 -962 467 -1550 587 -345 70 -869 104 -1240 81z"/>
<path d="M6250 9367 c-3 -3 -106 -8 -230 -12 -124 -4 -232 -9 -242 -11 -21 -6
-24 -15 -48 -147 -10 -62 -35 -188 -54 -282 -20 -93 -71 -345 -115 -560 -133
-647 -248 -1207 -296 -1440 -25 -121 -61 -296 -80 -390 -19 -93 -50 -246 -69
-340 -20 -93 -69 -334 -110 -535 -41 -201 -102 -498 -136 -660 -77 -373 -114
-552 -200 -975 -38 -187 -92 -450 -120 -585 -28 -135 -64 -310 -80 -390 -16
-80 -50 -244 -75 -365 -25 -121 -60 -289 -77 -374 l-31 -153 19 -37 c10 -20
107 -126 214 -235 107 -110 206 -212 220 -226 14 -15 122 -125 240 -246 118
-120 302 -309 409 -419 108 -110 348 -354 534 -542 307 -311 342 -343 371
-343 35 0 91 56 536 530 90 96 315 330 500 520 774 795 905 932 924 965 l20
36 -58 287 c-33 158 -78 382 -102 497 -24 116 -70 341 -103 500 -169 819 -272
1319 -367 1785 -58 283 -131 643 -164 800 -242 1165 -638 3113 -660 3248 -10
60 -16 75 -34 81 -23 9 -528 26 -536 18z"/>
</g>
</svg>
